<svg width="22" height="16" viewBox="0 0 22 16" fill="none" xmlns="http://www.w3.org/2000/svg">
<path fill-rule="evenodd" clip-rule="evenodd" d="M0 1.55058C0 1.04371 0.410899 0.632812 0.917769 0.632812H21.0822C21.5891 0.632812 22 1.04371 22 1.55058C22 2.05745 21.5891 2.46835 21.0822 2.46835H0.917769C0.410899 2.46835 0 2.05745 0 1.55058ZM0 8.28046C0 7.77359 0.410899 7.36269 0.917769 7.36269H21.0822C21.5891 7.36269 22 7.77359 22 8.28046C22 8.78733 21.5891 9.19823 21.0822 9.19823H0.917769C0.410899 9.19823 0 8.78733 0 8.28046ZM0.917769 14.094C0.410899 14.094 0 14.5049 0 15.0117C0 15.5186 0.410899 15.9295 0.917769 15.9295H21.0822C21.5891 15.9295 22 15.5186 22 15.0117C22 14.5049 21.5891 14.094 21.0822 14.094H0.917769Z" fill="white"/>
</svg>
