<?xml version="1.0" standalone="no"?>
<!DOCTYPE svg PUBLIC "-//W3C//DTD SVG 20010904//EN"
 "http://www.w3.org/TR/2001/REC-SVG-20010904/DTD/svg10.dtd">
<svg version="1.0" xmlns="http://www.w3.org/2000/svg"
 width="401.000000pt" height="401.000000pt" viewBox="0 0 401.000000 401.000000"
 preserveAspectRatio="xMidYMid meet">
<metadata>
Created by potrace 1.11, written by Peter Selinger 2001-2013
</metadata>
<g transform="translate(0.000000,401.000000) scale(0.100000,-0.100000)"
fill="#000000" stroke="none">
<path d="M0 2010 l0 -2000 2000 0 2000 0 0 2000 0 2000 -2000 0 -2000 0 0
-2000z m2450 1291 l0 -90 -93 -44 c-238 -113 -397 -263 -534 -507 -65 -114
-113 -312 -113 -462 l0 -78 245 0 245 0 0 -95 0 -95 -245 0 -245 0 0 -459 0
-460 -26 -20 c-24 -19 -58 -32 -116 -45 l-28 -6 0 634 c0 396 4 674 11 738 29
271 120 482 300 695 142 168 303 283 483 345 61 21 112 38 114 38 1 0 2 -40 2
-89z m0 -341 l0 -150 -80 0 -80 0 0 113 0 112 33 22 c29 20 99 50 120 52 4 1
7 -66 7 -149z m-2 -782 l-4 -553 -26 -96 c-33 -120 -75 -222 -134 -324 -107
-184 -379 -398 -678 -534 l-66 -30 0 107 0 107 98 37 c196 75 410 248 501 405
57 99 106 230 130 350 20 94 21 136 21 592 l0 491 80 0 81 0 -3 -552z"/>
</g>
</svg>
