<svg width="32" height="95" viewBox="0 0 32 95" fill="none" xmlns="http://www.w3.org/2000/svg">
<path fill-rule="evenodd" clip-rule="evenodd" d="M31.6602 7.25876V0.924805C31.6602 0.924805 26.6449 2.28595 24.4044 3.31076C14.8463 7.68276 6.08716 18.2007 3.01045 27.2168C1.92228 30.4056 1.07377 33.6874 0.645748 38.2863C0.143452 43.6832 0.182232 49.8389 0.228542 57.1898C0.238351 58.7468 0.248497 60.3574 0.253912 62.0258C0.276108 68.8655 0.253912 84.3842 0.253912 84.3842C0.253912 84.3842 2.57772 84.0959 3.63929 83.6893C4.70086 83.2827 6.26297 82.0825 6.26297 82.0825V50.7759H23.0458V44.056H6.26297C6.26297 44.056 6.26297 40.7537 6.56251 38.2863C6.90176 35.4918 7.45644 33.0531 8.02575 31.0668C9.10208 27.3116 11.9817 22.7215 14.2363 19.6994C20.8271 10.8651 31.6602 7.25876 31.6602 7.25876ZM31.6595 21.0667H25.7314V13.2048C25.7314 13.2048 27.2195 11.9857 28.2593 11.4729C29.299 10.9601 31.6595 10.2812 31.6595 10.2812V21.0667ZM25.8167 23.4062H31.6288V55.4083C31.6288 55.4083 31.9752 66.2075 24.9361 76.8742C17.897 87.5409 0.203125 94.6483 0.203125 94.6483V86.9991C0.203125 86.9991 9.19282 85.1209 17.0645 76.8742C24.9361 68.6275 25.8167 56.089 25.8167 56.089V23.4062Z" fill="white"/>
</svg>
