<svg width="30" height="30" viewBox="0 0 30 30" fill="none" xmlns="http://www.w3.org/2000/svg">
<path fill-rule="evenodd" clip-rule="evenodd" d="M15 0C6.6875 0 0 6.8744 0 15.3401C0 22.0872 4.31252 27.8796 10.25 29.9164C11 30.0437 11.25 29.5982 11.25 29.1526C11.25 28.7707 11.25 27.8159 11.25 26.5429C7.0625 27.4977 6.18752 24.506 6.18752 24.506C5.50002 22.7238 4.50001 22.2782 4.50001 22.2782C3.12501 21.3234 4.62502 21.3234 4.62502 21.3234C6.12502 21.4507 6.93748 22.9147 6.93748 22.9147C8.24998 25.2698 10.4375 24.5697 11.3125 24.1877C11.4375 23.1693 11.8125 22.5328 12.25 22.1509C8.93748 21.769 5.43751 20.4323 5.43751 14.5763C5.43751 12.9214 6.00001 11.521 7.00001 10.4389C6.87501 10.057 6.31252 8.46571 7.12502 6.3652C7.12502 6.3652 8.375 5.98328 11.25 7.9565C12.4375 7.63824 13.75 7.44729 15 7.44729C16.25 7.44729 17.5625 7.63824 18.75 7.9565C21.625 5.98328 22.875 6.3652 22.875 6.3652C23.6875 8.46571 23.1875 10.057 23 10.4389C23.9375 11.521 24.5625 12.8577 24.5625 14.5763C24.5625 20.4959 21.0625 21.769 17.6875 22.1509C18.25 22.5964 18.6875 23.5512 18.6875 25.0152C18.6875 27.0521 18.6875 28.7071 18.6875 29.2163C18.6875 29.5982 18.9375 30.1074 19.75 29.9801C25.6875 27.9432 30 22.2145 30 15.4038C30 6.87442 23.3125 0 15 0Z" fill="#2D3152"/>
</svg>
