<svg width="30" height="30" viewBox="0 0 30 30" fill="none" xmlns="http://www.w3.org/2000/svg">
<path fill-rule="evenodd" clip-rule="evenodd" d="M29.932 30H23.3333V19.425C23.3333 16.65 22.313 14.775 20 14.775C18.2313 14.775 17.2789 16.05 16.8707 17.25C16.7347 17.7 16.7347 18.3 16.7347 18.9V30H10.2041C10.2041 30 10.2721 11.325 10.2041 9.59999H16.7347V12.825C17.1428 11.4 19.1837 9.45 22.5851 9.45C26.7347 9.45 30 12.375 30 18.675V30H29.932ZM3.53743 7.05C1.36055 7.05 0 5.47501 0 3.52501C0 1.50001 1.42858 0 3.53743 0C5.7143 0 7.00682 1.50001 7.07485 3.52501C7.07485 5.47501 5.7143 7.05 3.53743 7.05ZM0.748283 9.59999H6.59865V30H0.748283V9.59999Z" fill="#2D3152"/>
</svg>
