<svg width="35" height="30" viewBox="0 0 35 30" fill="none" xmlns="http://www.w3.org/2000/svg">
<path d="M34.3369 9.90625C34.6035 9.66406 35 9.89062 35 10.2734V26.25C35 28.3203 33.5303 30 31.7188 30H3.28125C1.46973 30 0 28.3203 0 26.25V10.2812C0 9.89062 0.389648 9.67188 0.663086 9.91406C2.19434 11.2734 4.22461 13 11.1973 18.7891C12.6396 19.9922 15.0732 22.5234 17.5 22.5078C19.9404 22.5312 22.4219 19.9453 23.8096 18.7891C30.7822 13 32.8057 11.2656 34.3369 9.90625ZM17.5 20C19.0859 20.0312 21.3691 17.7188 22.5176 16.7656C31.5889 9.24219 32.2793 8.58594 34.3711 6.71094C34.7676 6.35938 35 5.8125 35 5.23438V3.75C35 1.67969 33.5303 0 31.7188 0H3.28125C1.46973 0 0 1.67969 0 3.75V5.23438C0 5.8125 0.232422 6.35156 0.628906 6.71094C2.7207 8.57812 3.41113 9.24219 12.4824 16.7656C13.6309 17.7188 15.9141 20.0312 17.5 20Z" fill="#2D3152"/>
</svg>
