<svg width="30" height="30" viewBox="0 0 30 30" fill="none" xmlns="http://www.w3.org/2000/svg">
<path fill-rule="evenodd" clip-rule="evenodd" d="M30 3.60902C28.875 4.21053 27.6875 4.58647 26.4375 4.81204C27.6875 3.90978 28.6875 2.40602 29.125 0.601506C27.9375 1.50376 26.625 2.10527 25.1875 2.40602C24.0625 0.902265 22.4375 0 20.6875 0C17.3125 0 14.5625 3.38346 14.5625 7.59399C14.5625 8.19549 14.625 8.797 14.75 9.32331C9.625 9.02256 5.12499 6.01504 2.06249 1.35339C1.56249 2.4812 1.25 3.7594 1.25 5.18798C1.25 7.81955 2.3125 10.1504 4 11.5038C3 11.5038 2.0625 11.1278 1.1875 10.5263V10.6015C1.1875 14.2857 3.31249 17.3684 6.12499 18.0451C5.62499 18.1955 5.06251 18.3459 4.50001 18.3459C4.12501 18.3459 3.68749 18.2707 3.31249 18.1955C4.12499 21.203 6.375 23.3835 9.0625 23.4587C6.9375 25.4887 4.31249 26.6917 1.43749 26.6917C0.937492 26.6917 0.4375 26.6917 0 26.6165C2.75 28.797 5.9375 30 9.4375 30C20.75 30 26.9375 18.4211 26.9375 8.42106C26.9375 8.12031 26.9375 7.74437 26.9375 7.44361C28.125 6.46617 29.1875 5.18797 30 3.60902Z" fill="#2D3152"/>
</svg>
